<svg xmlns="http://www.w3.org/2000/svg" width="24" height="24" fill="none" viewBox="0 0 24 24"><path fill="url(#paint0_linear_48_440)" d="M8 15H10V17H8V15Z"/><path fill="url(#paint1_linear_48_440)" d="M14 15H16V17H14V15Z"/><path fill="url(#paint2_linear_48_440)" d="M11 15H13V17H11V15Z"/><path fill="url(#paint3_linear_48_440)" d="M8 12H10V14H8V12Z"/><path fill="url(#paint4_linear_48_440)" d="M11 12H13V14H11V12Z"/><path fill="url(#paint5_linear_48_440)" d="M14 12H16V14H14V12Z"/><path fill="url(#paint6_linear_48_440)" d="M8 9H10V11H8V9Z"/><path fill="url(#paint7_linear_48_440)" d="M11 9H13V11H11V9Z"/><path fill="url(#paint8_linear_48_440)" d="M14 9H16V11H14V9Z"/><path fill="url(#paint9_linear_48_440)" d="M8 7H10V8H8V7Z"/><path fill="url(#paint10_linear_48_440)" d="M14 7H16V8H14V7Z"/><path fill="url(#paint11_linear_48_440)" d="M11 7H13V8H11V7Z"/><path fill="url(#paint12_linear_48_440)" fill-rule="evenodd" d="M6 2C4.34315 2 3 3.34315 3 5V19C3 20.6569 4.34315 22 6 22H18C19.6569 22 21 20.6569 21 19V5C21 3.34315 19.6569 2 18 2H6ZM7 18H17V6H7V18Z" clip-rule="evenodd"/><defs><linearGradient id="paint0_linear_48_440" x1="12" x2="12" y1="2" y2="22" gradientUnits="userSpaceOnUse"><stop stop-color="#29DD74"/><stop offset="1" stop-color="#09BF5B"/></linearGradient><linearGradient id="paint1_linear_48_440" x1="12" x2="12" y1="2" y2="22" gradientUnits="userSpaceOnUse"><stop stop-color="#29DD74"/><stop offset="1" stop-color="#09BF5B"/></linearGradient><linearGradient id="paint2_linear_48_440" x1="12" x2="12" y1="2" y2="22" gradientUnits="userSpaceOnUse"><stop stop-color="#29DD74"/><stop offset="1" stop-color="#09BF5B"/></linearGradient><linearGradient id="paint3_linear_48_440" x1="12" x2="12" y1="2" y2="22" gradientUnits="userSpaceOnUse"><stop stop-color="#29DD74"/><stop offset="1" stop-color="#09BF5B"/></linearGradient><linearGradient id="paint4_linear_48_440" x1="12" x2="12" y1="2" y2="22" gradientUnits="userSpaceOnUse"><stop stop-color="#29DD74"/><stop offset="1" stop-color="#09BF5B"/></linearGradient><linearGradient id="paint5_linear_48_440" x1="12" x2="12" y1="2" y2="22" gradientUnits="userSpaceOnUse"><stop stop-color="#29DD74"/><stop offset="1" stop-color="#09BF5B"/></linearGradient><linearGradient id="paint6_linear_48_440" x1="12" x2="12" y1="2" y2="22" gradientUnits="userSpaceOnUse"><stop stop-color="#29DD74"/><stop offset="1" stop-color="#09BF5B"/></linearGradient><linearGradient id="paint7_linear_48_440" x1="12" x2="12" y1="2" y2="22" gradientUnits="userSpaceOnUse"><stop stop-color="#29DD74"/><stop offset="1" stop-color="#09BF5B"/></linearGradient><linearGradient id="paint8_linear_48_440" x1="12" x2="12" y1="2" y2="22" gradientUnits="userSpaceOnUse"><stop stop-color="#29DD74"/><stop offset="1" stop-color="#09BF5B"/></linearGradient><linearGradient id="paint9_linear_48_440" x1="12" x2="12" y1="2" y2="22" gradientUnits="userSpaceOnUse"><stop stop-color="#29DD74"/><stop offset="1" stop-color="#09BF5B"/></linearGradient><linearGradient id="paint10_linear_48_440" x1="12" x2="12" y1="2" y2="22" gradientUnits="userSpaceOnUse"><stop stop-color="#29DD74"/><stop offset="1" stop-color="#09BF5B"/></linearGradient><linearGradient id="paint11_linear_48_440" x1="12" x2="12" y1="2" y2="22" gradientUnits="userSpaceOnUse"><stop stop-color="#29DD74"/><stop offset="1" stop-color="#09BF5B"/></linearGradient><linearGradient id="paint12_linear_48_440" x1="12" x2="12" y1="2" y2="22" gradientUnits="userSpaceOnUse"><stop stop-color="#29DD74"/><stop offset="1" stop-color="#09BF5B"/></linearGradient></defs></svg>