<svg width="16" height="16" viewBox="0 0 16 16" fill="none" xmlns="http://www.w3.org/2000/svg">
<g transform="translate(3.5 2.5)">
<path fill-rule="evenodd" clip-rule="evenodd" d="M1.5 0C0.671573 0 0 0.671573 0 1.5V9.5C0 10.3284 0.671573 11 1.5 11C2.32843 11 3 10.3284 3 9.5V1.5C3 0.671573 2.32843 0 1.5 0ZM1 1.5C1 1.22386 1.22386 1 1.5 1C1.77614 1 2 1.22386 2 1.5V9.5C2 9.77614 1.77614 10 1.5 10C1.22386 10 1 9.77614 1 9.5V1.5Z" fill="#303233"/>
<path fill-rule="evenodd" clip-rule="evenodd" d="M7.5 0C6.67157 0 6 0.671573 6 1.5V9.5C6 10.3284 6.67157 11 7.5 11C8.32843 11 9 10.3284 9 9.5V1.5C9 0.671573 8.32843 0 7.5 0ZM7 1.5C7 1.22386 7.22386 1 7.5 1C7.77614 1 8 1.22386 8 1.5V9.5C8 9.77614 7.77614 10 7.5 10C7.22386 10 7 9.77614 7 9.5V1.5Z" fill="#303233"/>
</g>
</svg>
