<svg xmlns="http://www.w3.org/2000/svg" width="16" height="16" fill="none" viewBox="0 0 16 16"><path fill="#A9ABAD" d="M6 5.5C6.27614 5.5 6.5 5.72386 6.5 6V10C6.5 10.2761 6.27614 10.5 6 10.5C5.72386 10.5 5.5 10.2761 5.5 10V6C5.5 5.72386 5.72386 5.5 6 5.5Z"/><path fill="#A9ABAD" d="M10.5 6C10.5 5.72386 10.2761 5.5 10 5.5C9.72386 5.5 9.5 5.72386 9.5 6V10C9.5 10.2761 9.72386 10.5 10 10.5C10.2761 10.5 10.5 10.2761 10.5 10V6Z"/><path fill="#A9ABAD" fill-rule="evenodd" d="M1 2.94444C1 1.87056 1.87056 1 2.94444 1H13.0556C14.1294 1 15 1.87056 15 2.94444V13.0556C15 14.1294 14.1294 15 13.0556 15H2.94444C1.87056 15 1 14.1294 1 13.0556V2.94444ZM2.94444 2C2.42284 2 2 2.42284 2 2.94444V13.0556C2 13.5772 2.42284 14 2.94444 14H13.0556C13.5772 14 14 13.5772 14 13.0556V2.94444C14 2.42284 13.5772 2 13.0556 2H2.94444Z" clip-rule="evenodd"/></svg>