<svg xmlns="http://www.w3.org/2000/svg" xmlns:svg="http://www.w3.org/2000/svg" id="svg2" width="22" height="22" fill="none" version="1.1" viewBox="0 0 22 22"><path id="path1" fill="#303233" d="m 14.068525,13.44506 c 0.106,0 0.1915,-0.0856 0.1915,-0.1956 V 8.75054 c 0,-0.11003 -0.0855,-0.1956 -0.1915,-0.1956 h -0.5664 c -0.1019,0 -0.1997,0.04075 -0.273,0.1141 l -2.15983,2.18831 c -0.03667,0.03667 -0.10187,0.03667 -0.13855,0 L 8.770965,8.66904 C 8.697615,8.59569 8.599805,8.55494 8.497935,8.55494 h -0.56644 c -0.10595,0 -0.19152,0.08557 -0.19152,0.1956 v 4.49892 c 0,0.11 0.08557,0.1956 0.19152,0.1956 h 0.82317 c 0.10595,0 0.19152,-0.0856 0.19152,-0.1956 v -2.55511 c 0,-0.02445 0.02853,-0.0326 0.04076,-0.02038 l 1.74005,1.76043 c 0.15077,0.15485 0.39528,0.15485 0.54606,0 l 1.74007,-1.76043 c 0.0122,-0.01222 0.0407,-0.0041 0.0407,0.02038 v 2.55511 c 0,0.11 0.0856,0.1956 0.1916,0.1956 z"/><path id="path2" fill="#303233" fill-rule="evenodd" d="m 11,3.9999992 c -3.86599,0 -7,3.1340106 -7,7.0000018 0,3.866 3.13401,7 7,7 3.866,0 7,-3.134 7,-7 C 18,7.1340098 14.866,3.9999992 11,3.9999992 Z M 5,11.000001 c 0,-3.3137112 2.68629,-6.0000014 6,-6.0000014 3.3137,0 6,2.6862902 6,6.0000014 0,3.3137 -2.6863,6 -6,6 -3.31371,0 -6,-2.6863 -6,-6 z" clip-rule="evenodd"/></svg>