<svg xmlns="http://www.w3.org/2000/svg" xmlns:svg="http://www.w3.org/2000/svg" id="svg2" width="22" height="22" fill="none" version="1.1" viewBox="0 0 22 22"><path id="path1" fill="#303233" d="m 11.000001,8 c 0.27614,0 0.5,0.22386 0.5,0.5 v 3.79289 l 1.6464,-1.64644 c 0.1953,-0.19527 0.5119,-0.19527 0.7072,0 0.1952,0.19526 0.1952,0.51184 0,0.7071 l -2.50005,2.50005 c -0.19526,0.1952 -0.51184,0.1952 -0.7071,0 L 8.1464513,11.35355 c -0.19527,-0.19526 -0.19527,-0.51184 0,-0.7071 0.19526,-0.19527 0.51184,-0.19527 0.7071,0 l 1.6464497,1.64644 V 8.5 c 0,-0.27614 0.22386,-0.5 0.5,-0.5 z"/><path id="path2" fill="#303233" fill-rule="evenodd" d="m 4,11 c 0,-3.86599 3.13401,-7 7,-7 3.866,0 7,3.13401 7,7 0,3.866 -3.134,7 -7,7 -3.86599,0 -7,-3.134 -7,-7 z m 7,-6 c -3.31371,0 -6,2.68629 -6,6 0,3.3137 2.68629,6 6,6 3.3137,0 6,-2.6863 6,-6 0,-3.31371 -2.6863,-6 -6,-6 z" clip-rule="evenodd"/></svg>