<svg xmlns="http://www.w3.org/2000/svg" xmlns:svg="http://www.w3.org/2000/svg" id="svg1" width="22" height="22" fill="none" version="1.1" viewBox="0 0 22 22"><path id="path1" fill="#303233" fill-rule="evenodd" d="m 5.99995,5 c -1.10457,0 -2.000008,0.89544 -2,2.00001 L 4.00001,15 c 0,1.1046 0.89543,2 2,2 h 10.00004 c 1.1045,0 2,-0.8954 2,-2 V 8 c 0,-1.10457 -0.8955,-2 -2,-2 H 12.20707 C 11.75436,6 11.32019,5.82014 11.0001,5.5 10.68001,5.17986 10.24584,5 9.79313,5 Z m 1.5e-4,2 c -0.55228,0 -1,0.44772 -1,1 v 7 c 0,0.5523 0.44772,1 1,1 h 10.00005 c 0.5522,0 1,-0.4477 1,-1 V 8 c 0,-0.55228 -0.4478,-1 -1,-1 z" clip-rule="evenodd"/></svg>