<svg xmlns="http://www.w3.org/2000/svg" xmlns:svg="http://www.w3.org/2000/svg" id="svg3" width="22" height="22" fill="none" version="1.1" viewBox="0 0 22 22"><path id="path1" fill="#303233" d="m 4.85667,8.8740001 c 0.54664,-0.56121 1.28519,-0.874 2.05242,-0.874 h 2.04546 c 0.27614,0 0.5,-0.22386 0.5,-0.5 0,-0.27614 -0.22386,-0.5 -0.5,-0.5 H 6.90909 c -1.04106,0 -2.03674,0.42471 -2.76876,1.17625 C 3.408739,8.9273501 3,9.9433201 3,11 c 0,1.05668 0.408739,2.0726 1.14033,2.8237 0.36237,0.3721 0.79328,0.6679 1.26849,0.87 C 5.88405,14.8958 6.39389,15 6.90909,15 h 2.04546 c 0.27614,0 0.5,-0.2239 0.5,-0.5 0,-0.2761 -0.22386,-0.5 -0.5,-0.5 H 6.90909 C 6.52892,14 6.15214,13.9231 5.80016,13.7735 5.44815,13.6238 5.12743,13.404 4.85667,13.126 4.3096,12.56434 4,11.79983 4,11 4,10.20017 4.3096,9.4356601 4.85667,8.8740001 Z"/><path id="path2" fill="#303233" d="m 13.0455,7.0000001 c -0.27619,0 -0.50005,0.22386 -0.50005,0.5 0,0.27614 0.22386,0.5 0.50005,0.5 h 2.0454 c 0.3802,0 0.757,0.07686 1.1089,0.22654 0.3521,0.1497 0.6728,0.36948 0.9435,0.64746 0.2708,0.278 0.4863,0.60875 0.6335,0.97368 C 17.9241,10.21264 18,10.60423 18,11 c 0,0.39577 -0.0759,0.78736 -0.2232,1.15232 -0.1472,0.36493 -0.3627,0.69568 -0.6335,0.97368 -0.2707,0.278 -0.5914,0.4978 -0.9435,0.6475 C 15.8479,13.9231 15.4711,14 15.0909,14 h -2.0454 c -0.27619,0 -0.50005,0.2239 -0.50005,0.5 0,0.2761 0.22386,0.5 0.50005,0.5 h 2.0454 c 0.5152,0 1.025,-0.1042 1.5003,-0.3063 0.4752,-0.2021 0.9061,-0.4979 1.2685,-0.87 0.3623,-0.372 0.6491,-0.8129 0.8445,-1.29723 C 18.8996,12.04214 19,11.52349 19,11 19,10.47651 18.8996,9.9578601 18.7042,9.4735301 c -0.1954,-0.48434 -0.4822,-0.92527 -0.8445,-1.29728 -0.3624,-0.37203 -0.7933,-0.66786 -1.2685,-0.86995 -0.4753,-0.2021 -0.9851,-0.3063 -1.5003,-0.3063 z"/><path id="path3" fill="#303233" d="m 8.27295,10.5 c -0.27614,0 -0.5,0.22386 -0.5,0.5 0,0.27614 0.22386,0.5 0.5,0.5 h 5.45455 c 0.2761,0 0.5,-0.22386 0.5,-0.5 0,-0.27614 -0.2239,-0.5 -0.5,-0.5 z"/></svg>