<svg xmlns="http://www.w3.org/2000/svg" xmlns:svg="http://www.w3.org/2000/svg" id="svg2" width="22" height="22" fill="none" version="1.1" viewBox="0 0 22 22"><path id="path1" fill="#303233" d="m 15.498006,16.25 c 0,0.2761 -0.2239,0.5 -0.5,0.5 -0.2761,0 -0.5,-0.2239 -0.5,-0.5 V 6.95711 l -2.39645,2.39644 c -0.19526,0.19527 -0.51184,0.19527 -0.7071,0 -0.19527,-0.19526 -0.19527,-0.51184 0,-0.7071 l 3.24995,-3.25 c 0.1952,-0.19518 0.5116,-0.19528 0.7069,-2.2e-4 l 3.254,3.25 c 0.1954,0.19514 0.1956,0.51172 5e-4,0.70711 -0.1952,0.19538 -0.5118,0.19557 -0.7071,4.3e-4 l -2.4007,-2.39771 z"/><path id="path2" fill="#303233" d="m 7.4980063,5.75 c 0,-0.27614 -0.22386,-0.5 -0.5,-0.5 -0.27614,0 -0.5,0.22386 -0.5,0.5 v 9.2929 l -2.39645,-2.39645 c -0.195259,-0.19526 -0.511841,-0.19526 -0.707103,0 -0.195263,0.19526 -0.195263,0.51185 0,0.70715 l 3.250003,3.25 c 0.19517,0.1951 0.51159,0.1952 0.70689,2e-4 l 3.2539997,-3.25 c 0.19538,-0.1952 0.19557,-0.51175 4.3e-4,-0.70713 -0.19514,-0.19539 -0.51172,-0.19558 -0.7071097,-4.4e-4 l -2.40066,2.39767 z"/></svg>